# xmcd
#
# Track frame offsets: 
#        150
#        13103
#        28848
#        41673
#        56195
#        68683
#        85736
#        97131
#        110325
#        120345
#        135404
#        149272
#
# Disc length: 2194 seconds
#
# Revision: 1
# Processed by: cddbd v1.4PL0 Copyright (c) Steve Scherf et al.
# Submitted via: ExactAudioCopy v0.90b3
#
DISCID=a208900c
DTITLE=New Found Glory - New Found Glory
DYEAR=1900
DGENRE=New Wave
TTITLE0=Better Off Dead
TTITLE1=Dressed To Kill
TTITLE2=Sincerly Me
TTITLE3=Hit Or Miss
TTITLE4=Second To Last
TTITLE5=Eyesore
TTITLE6=Vegas
TTITLE7=Sucker
TTITLE8=Black And Blue
TTITLE9=Boy Crazy
TTITLE10=All About Her
TTITLE11=Ballad For The Lost Romantics
EXTD=
EXTT0=
EXTT1=
EXTT2=
EXTT3=
EXTT4=
EXTT5=
EXTT6=
EXTT7=
EXTT8=
EXTT9=
EXTT10=
EXTT11=
PLAYORDER=
